<svg aria-hidden="true" style="position: absolute; width: 0; height: 0; overflow: hidden;" version="1.1" xmlns="http://www.w3.org/2000/svg" xmlns:xlink="http://www.w3.org/1999/xlink">
<defs>
<symbol id="icon-16" viewBox="0 0 47 32">
<title>16</title>
<path d="M6.058 30.545v-25.169l4.113 3.91h-9.001v-7.249h14.499v28.509h-9.612zM34.485 31.197c-2.715 0-5.105-0.516-7.168-1.548-2.036-1.059-3.638-2.62-4.806-4.684-1.14-2.091-1.711-4.684-1.711-7.779 0-3.34 0.665-6.177 1.996-8.512 1.33-2.362 3.177-4.168 5.539-5.417 2.389-1.249 5.145-1.873 8.268-1.873 1.683 0 3.299 0.204 4.847 0.611 1.575 0.38 2.905 0.923 3.991 1.629l-3.462 6.72c-0.842-0.597-1.697-0.991-2.566-1.181-0.842-0.217-1.711-0.326-2.607-0.326-1.928 0-3.475 0.584-4.643 1.751-1.14 1.14-1.711 2.81-1.711 5.009 0 0.407 0 0.815 0 1.222 0 0.38 0 0.774 0 1.181l-2.199-1.588c0.543-0.923 1.181-1.697 1.914-2.321 0.733-0.652 1.602-1.14 2.607-1.466 1.005-0.353 2.172-0.529 3.503-0.529 1.738 0 3.34 0.38 4.806 1.14 1.493 0.733 2.688 1.778 3.584 3.136 0.923 1.358 1.385 2.973 1.385 4.847 0 2.036-0.516 3.801-1.548 5.295s-2.43 2.647-4.195 3.462c-1.738 0.815-3.679 1.222-5.824 1.222zM33.833 24.559c0.57 0 1.072-0.109 1.507-0.326 0.462-0.244 0.815-0.584 1.059-1.018s0.367-0.95 0.367-1.548c0-0.896-0.272-1.602-0.815-2.118-0.543-0.543-1.249-0.815-2.118-0.815-0.57 0-1.073 0.122-1.507 0.367s-0.788 0.584-1.059 1.018c-0.244 0.434-0.367 0.95-0.367 1.548s0.122 1.113 0.367 1.548c0.271 0.434 0.624 0.774 1.059 1.018 0.434 0.217 0.937 0.326 1.507 0.326z"></path>
</symbol>
<symbol id="icon-23" viewBox="0 0 52 32">
<title>23</title>
<path d="M2.079 30.545v-5.905l10.304-9.53c0.652-0.624 1.127-1.168 1.425-1.629 0.326-0.462 0.543-0.869 0.652-1.222 0.109-0.38 0.163-0.733 0.163-1.059 0-0.706-0.231-1.249-0.692-1.629-0.462-0.407-1.154-0.611-2.077-0.611-0.842 0-1.643 0.231-2.403 0.692-0.76 0.434-1.358 1.086-1.792 1.955l-7.249-3.625c1.032-1.955 2.579-3.543 4.643-4.765s4.629-1.833 7.697-1.833c2.254 0 4.249 0.367 5.987 1.1s3.095 1.765 4.073 3.095 1.466 2.905 1.466 4.724c0 0.923-0.122 1.846-0.367 2.769-0.217 0.923-0.679 1.901-1.385 2.932-0.706 1.005-1.751 2.131-3.136 3.38l-7.738 7.046-1.507-3.34h14.784v7.453h-22.848zM38.343 31.197c-1.955 0-3.937-0.217-5.946-0.652s-3.774-1.072-5.295-1.914l3.258-7.087c1.222 0.706 2.498 1.235 3.828 1.588 1.358 0.326 2.634 0.489 3.828 0.489 1.086 0 1.968-0.176 2.647-0.529 0.706-0.38 1.059-0.937 1.059-1.67 0-0.624-0.258-1.1-0.774-1.425-0.516-0.353-1.385-0.529-2.607-0.529h-3.788v-5.905l7.372-7.494 0.855 3.217h-14.214v-7.249h21.26v5.905l-7.372 7.494-4.602-2.607h2.525c3.584 0 6.313 0.801 8.186 2.403s2.81 3.665 2.81 6.191c0 1.629-0.462 3.19-1.385 4.684-0.896 1.493-2.308 2.715-4.236 3.665-1.901 0.95-4.371 1.425-7.412 1.425z"></path>
</symbol>
<symbol id="icon-Arrow" viewBox="0 0 82 32">
<title>Arrow</title>
<path d="M81.414 17.414c0.781-0.781 0.781-2.047 0-2.828l-12.728-12.728c-0.781-0.781-2.047-0.781-2.828 0s-0.781 2.047 0 2.828l11.314 11.314-11.314 11.314c-0.781 0.781-0.781 2.047 0 2.828s2.047 0.781 2.828 0l12.728-12.728zM0 18h80v-4h-80v4z"></path>
</symbol>

</defs>
</svg>
